<?xml version="1.0" encoding="iso-8859-1"?>
<!-- Generator: Adobe Illustrator 19.0.0, SVG Export Plug-In . SVG Version: 6.00 Build 0)  -->
<svg version="1.1" id="Capa_1" xmlns="http://www.w3.org/2000/svg" xmlns:xlink="http://www.w3.org/1999/xlink" x="0px" y="0px"
	 viewBox="0 0 510.809 510.809" style="enable-background:new 0 0 510.809 510.809;" xml:space="preserve">
<g transform="translate(0 -1)">
	<path style="fill:#BDC3C7;" d="M221.065,365.646l-49.964,24.982l-24.894,49.876l-6.268-6.179
		c-17.241,17.193-45.15,17.173-62.367-0.044c-17.217-17.217-17.237-45.125-0.044-62.367l-6.268-6.268l49.964-24.982l24.982-49.964
		l9.516-9.525l76.617,73.192L221.065,365.646z"/>
	<g>
		<polygon style="fill:#7F8C8D;" points="223.722,193.499 210.075,179.86 191.943,161.72 160.729,192.934 178.86,211.066 
			178.86,211.066 319.625,351.83 350.839,320.616 		"/>
		
			<rect x="319.005" y="128.319" transform="matrix(0.7071 0.7071 -0.7071 0.7071 222.4456 -186.7589)" style="fill:#7F8C8D;" width="35.311" height="93.635"/>
		<path style="fill:#7F8C8D;" d="M389.616,336.603c-0.159,0-0.315-0.005-0.474-0.016c-5.381-0.977-9.052-6-8.349-11.424
			l6.241-145.997c-0.226-5.383,3.902-9.955,9.28-10.278c5.381,0.977,9.052,6,8.349,11.424l-6.241,145.997
			C398.671,331.529,394.811,336.041,389.616,336.603z"/>
		<path style="fill:#7F8C8D;" d="M195.068,131.021c-5.083,0.327-9.56-3.318-10.269-8.362c0.046-2.527,1.101-4.93,2.93-6.674
			c1.829-1.744,4.281-2.682,6.807-2.607l138.308-6.241c5.277-0.62,10.083,3.088,10.823,8.349c-0.046,2.527-1.101,4.93-2.93,6.674
			c-1.829,1.744-4.281,2.682-6.807,2.607l-138.308,6.241C195.435,131.017,195.249,131.021,195.068,131.021z"/>
	</g>
	<path style="fill:#95A5A5;" d="M396.266,124.361c-3.57-0.001-6.788-2.152-8.154-5.45c-1.366-3.298-0.611-7.094,1.913-9.619
		l44.138-44.138c2.23-2.23,5.48-3.101,8.526-2.284c3.046,0.816,5.425,3.195,6.241,6.241c0.816,3.046-0.055,6.296-2.285,8.526
		l-44.138,44.138C400.854,123.434,398.608,124.364,396.266,124.361L396.266,124.361z"/>
	<circle style="fill:#7F8C8D;" cx="445.789" cy="66.011" r="17.655"/>
	<path style="fill:#95A5A5;" d="M221.073,365.628l-74.905-74.905L277.252,159.64c3.447-3.447,9.037-3.447,12.484,0l62.421,62.421
		c3.447,3.447,3.447,9.037,0,12.484L221.073,365.628z"/>
	<g>
		<path style="fill:#BDC3C7;" d="M345.914,41.046c-34.474,34.474-34.474,90.367,0,124.841c34.474,34.474,90.367,34.474,124.841,0
			L345.914,41.046z"/>
		<polygon style="fill:#BDC3C7;" points="121.199,340.664 171.136,390.601 221.074,365.637 146.172,290.726 		"/>
	</g>
	<polygon style="fill:#D1D4D1;" points="171.136,390.601 121.199,340.664 71.261,365.637 146.172,440.539 	"/>
	<path style="fill:#B0D3F0;" d="M258.528,253.242L258.528,253.242c-6.895-6.895-6.895-18.073,0-24.968l49.937-49.937l24.968,24.968
		l-49.937,49.937C276.602,260.136,265.423,260.136,258.528,253.242z"/>
	<g>
		<path style="fill:#285680;" d="M508.226,440.504l-68.679,68.679c-1.649,1.653-3.888,2.582-6.223,2.582
			c-2.335,0-4.574-0.929-6.223-2.582l-12.447-12.447h-0.088L402.119,484.2l-12.535-12.447l-37.429-37.429l-12.447-12.535
			l-12.447-12.447h-0.088l-12.447-12.535l-12.535-12.447l-18.714-18.714c-3.443-3.469-3.443-9.066,0-12.535l68.679-68.59
			c1.649-1.653,3.888-2.582,6.223-2.582c2.335,0,4.574,0.929,6.223,2.582l18.803,18.715l12.447,12.447v0.088l12.447,12.447
			l12.535,12.447v0.088l12.447,12.359l12.535,12.535l12.447,12.447l12.535,12.535l12.447,12.447v0.088l12.447,12.359v0.088
			l12.535,12.447c1.653,1.649,2.582,3.888,2.582,6.223C510.809,436.615,509.88,438.854,508.226,440.504L508.226,440.504z"/>
		<path style="fill:#285680;" d="M227.333,159.61l-68.679,68.679c-1.649,1.653-3.888,2.582-6.223,2.582
			c-2.335,0-4.574-0.929-6.223-2.582l-18.803-18.714l-12.447-12.447l-12.447-12.535l-12.447-12.447h-0.088L77.529,159.61
			l-12.535-12.447L15.118,97.287v-0.088L2.582,84.752c-3.443-3.469-3.443-9.066,0-12.535l68.679-68.59
			c1.649-1.653,3.888-2.582,6.223-2.582s4.574,0.929,6.223,2.582l12.535,12.447L108.69,28.52l37.517,37.517l12.447,12.447v0.088
			l12.447,12.447l12.535,12.447v0.088l12.447,12.359l31.25,31.25c1.653,1.649,2.582,3.888,2.582,6.223
			S228.986,157.961,227.333,159.61z"/>
	</g>
	<g>
		<polygon style="fill:#B0D3F0;" points="208.618,128.448 127.404,209.574 114.958,197.127 196.083,115.913 		"/>
		<polygon style="fill:#B0D3F0;" points="183.636,103.466 183.636,103.555 102.511,184.592 90.064,172.145 171.101,91.019 		"/>
		<polygon style="fill:#B0D3F0;" points="158.654,78.484 158.654,78.573 77.529,159.61 64.993,147.163 146.207,66.037 		"/>
		<polygon style="fill:#B0D3F0;" points="133.672,53.502 52.546,134.716 40.011,122.181 121.225,41.055 		"/>
		<polygon style="fill:#B0D3F0;" points="108.69,28.52 27.564,109.734 15.118,97.287 15.118,97.199 96.243,16.073 		"/>
		<polygon style="fill:#B0D3F0;" points="495.691,415.521 495.691,415.61 414.654,496.735 414.566,496.735 402.119,484.2 
			483.244,403.163 		"/>
		<polygon style="fill:#B0D3F0;" points="470.798,390.628 389.584,471.753 377.137,459.306 458.262,378.093 		"/>
		<polygon style="fill:#B0D3F0;" points="445.815,365.646 364.602,446.771 352.155,434.324 433.28,353.11 		"/>
		<polygon style="fill:#B0D3F0;" points="420.833,340.664 420.833,340.752 339.708,421.789 327.261,409.342 408.298,328.217 		"/>
		<polygon style="fill:#B0D3F0;" points="395.851,315.682 395.851,315.77 314.726,396.807 302.191,384.36 383.404,303.235 		"/>
	</g>
</g>
<g>
</g>
<g>
</g>
<g>
</g>
<g>
</g>
<g>
</g>
<g>
</g>
<g>
</g>
<g>
</g>
<g>
</g>
<g>
</g>
<g>
</g>
<g>
</g>
<g>
</g>
<g>
</g>
<g>
</g>
</svg>
